# AST/ASF file generated using VICON BodyLanguage
# -----------------------------------------------
:version 1.10
:name VICON
:units
  mass 1.0
  length 0.45
  angle deg
:documentation
   .ast/.asf automatically generated from VICON data using
   VICON BodyBuilder and BodyLanguage model FoxedUp or BRILLIANT.MOD
:root
   order TX TY TZ RX RY RZ
   axis XYZ
   position 0 0 0  
   orientation 0 0 0 
:bonedata
  begin
     id 1 
     name lhipjoint
     direction 0.78388 -0.462562 0.414208 
     length 3.01181 
     axis 0 0 0  XYZ
  end
  begin
     id 2 
     name lfemur
     direction 0.34202 -0.939693 0  
     length 6.04673  
     axis 0 0 20  XYZ
    dof rx ry rz
    limits (-160.0 20.0)
           (-70.0 70.0)
           (-60.0 70.0)
  end
  begin
     id 3 
     name ltibia
     direction 0.34202 -0.939693 0   
     length 7.211   
     axis 0 0 20   XYZ
    dof rx
    limits (-10.0 170.0)
  end
  begin
     id 4 
     name lfoot
     direction 0.121887 -0.334882 0.934344   
     length 2.13567   
     axis -90 7.62852e-016 20   XYZ
    dof rx rz
    limits (-45.0 90.0)
           (-70.0 20.0)
  end
  begin
     id 5 
     name ltoes
     direction 1.53555e-011 -4.2179e-011 1   
     length 1.05957   
     axis -90 7.62852e-016 20   XYZ
    dof rx
    limits (-90.0 20.0)
  end
  begin
     id 6 
     name rhipjoint
     direction -0.769387 -0.475875 0.426129   
     length 2.92756  
     axis 0 0 0  XYZ 
  end
  begin
     id 7 
     name rfemur
     direction -0.34202 -0.939693 0   
     length 6.35468   
     axis 0 0 -20   XYZ
    dof rx ry rz
    limits (-160.0 20.0)
           (-70.0 70.0)
           (-70.0 60.0)
  end
  begin
     id 8 
     name rtibia
     direction -0.34202 -0.939693 0   
     length 7.37886   
     axis 0 0 -20   XYZ
    dof rx
    limits (-10.0 170.0)
 end
 begin
     id 9 
     name rfoot
     direction -0.101763 -0.279592 0.954711   
     length 2.21478  
     axis -90 -7.62852e-016 -20   XYZ
    dof rx rz
    limits (-45.0 90.0)
           (-20.0 70.0)
  end
  begin
     id 10 
     name rtoes
     direction -1.53494e-011 -4.21851e-011 1   
     length 1.10506   
     axis -90 -7.62852e-016 -20   XYZ
    dof rx
    limits (-90.0 20.0)
  end
  begin
     id 11 
     name lowerback
     direction 0.00747405 0.999267 0.0375481   
     length 2.13259   
     axis 0 0 0   XYZ
    dof rx ry rz
    limits (-20.0 45.0)
           (-30.0 30.0)
           (-30.0 30.0)
  end
  begin
     id 12 
     name upperback
     direction 0.00661626 0.996177 0.0871029   
     length 2.10528   
     axis 0 0 0   XYZ
    dof rx ry rz
    limits (-20.0 45.0)
           (-30.0 30.0)
           (-30.0 30.0)
  end
  begin
     id 13 
     name thorax
     direction 0.00320659 0.997679 0.0680167   
     length 2.11338   
     axis 0 0 0   XYZ
    dof rx ry rz
    limits (-20.0 45.0)
           (-30.0 30.0)
           (-30.0 30.0)
  end
  begin
     id 14 
     name lowerneck
     direction 0.0374841 0.973033 0.227602   
     length 1.42765   
     axis 0 0 0   XYZ
    dof rx ry rz
    limits (-20.0 45.0)
           (-30.0 30.0)
           (-30.0 30.0)
  end
  begin
     id 15 
     name upperneck
     direction 0.00481585 0.989155 -0.146795   
     length 1.47593   
     axis 0 0 0   XYZ
    dof rx ry rz
    limits (-20.0 45.0)
           (-30.0 30.0)
           (-30.0 30.0)
  end
  begin
     id 16
     name head
     direction -0.00292522 0.997206 -0.0746423  
     length 1.48116  
     axis 0 0 0   XYZ
    dof rx ry rz
    limits (-20.0 45.0)
           (-30.0 30.0)
           (-30.0 30.0)
  end
  begin
     id 17 
     name lclavicle
     direction 0.951444 0.305606 0.0368784  
     length 3.01855  
     axis 0 0 0   XYZ
    dof ry rz
    limits (-20.0 10.0)
           (0.0 20.0)
  end
  begin
     id 18 
     name lhumerus
     direction 1 -4.48977e-011 2.61664e-027   
     length 5.52731   
     axis 180 -30 -90   XYZ
    dof rx ry rz
    limits (-60.0 90.0)
           (-90.0 90.0)
           (-90.0 90.0)
  end
  begin
     id 19
     name lradius
     direction 1 -4.48944e-011 8.22157e-027   
     length 3.11059   
     axis 180 -30 -90   XYZ
    dof rx
    limits (-10.0 170.0)
  end
  begin
     id 20
     name lwrist
     direction 1 -4.48976e-011 1.5779e-026   
     length 1.5553   
     axis -1.15221e-014 90 90   XYZ
    dof ry
    limits (-180.0 0.0)
 end
  begin
     id 21 
     name lhand
     direction 1 -4.49025e-011 3.1558e-026   
     length 0.419626   
     axis -2.01367e-014 90 90   XYZ
    dof rx rz
    limits (-90.0 90.0)
           (-45.0 45.0)
  end
  begin
     id 22 
     name lfingers
     direction 1 -4.4904e-011 6.31161e-026   
     length 0.338313   
     axis -4.02734e-014 90 90   XYZ
    dof rx
    limits (0.0 90.0)
  end
  begin
     id 23
     name lthumb
     direction 0.707107 -6.35004e-011 0.707107   
     length 0.485752   
     axis -90 45 2.85299e-015   XYZ
    dof rx rz
    limits (-45.0 45.0)
           (-45.0 45.0)
  end
  begin
     id 24 
     name rclavicle
     direction -0.968876 0.223791 0.105816   
     length 3.04177  
     axis 0 0 0   XYZ 
    dof ry rz
    limits (-10.0 20.0)
           (-20.0 0.0)
  end
  begin
     id 25 
     name rhumerus
     direction -1 -4.48962e-011 -1.01384e-027  
     length 5.25396   
     axis 180 30 90   XYZ
    dof rx ry rz
    limits (-90.0 60.0)
           (-90.0 90.0)
           (-90.0 90.0)
  end
  begin
     id 26 
     name rradius
     direction -1 -4.48955e-011 8.88542e-027   
     length 3.10567   
     axis 180 30 90   XYZ
    dof rx
    limits (-10.0 170.0)
  end
  begin
     id 27 
     name rwrist
     direction -1 -4.48994e-011 1.5779e-026   
     length 1.55283   
     axis -1.15221e-014 -90 -90   XYZ
    dof ry
    limits (-180.0 0.0)
  end
  begin
     id 28
     name rhand
     direction -1 -4.48891e-011 3.1558e-026   
     length 0.498676   
     axis -2.01367e-014 -90 -90   XYZ
    dof rx rz
    limits (-90.0 90.0)
           (-45.0 45.0)
  end
  begin
     id 29
     name rfingers
     direction -1 -4.48972e-011 6.31161e-026   
     length 0.402045   
     axis -4.02734e-014 -90 -90   XYZ
    dof rx
    limits (0.0 90.0)
  end
  begin
     id 30
     name rthumb
     direction -0.707107 -6.34849e-011 0.707107   
     length 0.577259   
     axis -90 -45 -2.85299e-015   XYZ
    dof rx rz
    limits (-45.0 45.0)
           (-45.0 45.0)
  end
:hierarchy
  begin
    root lhipjoint rhipjoint lowerback
    lhipjoint lfemur
    lfemur ltibia
    ltibia lfoot
    lfoot ltoes
    rhipjoint rfemur
    rfemur rtibia
    rtibia rfoot
    rfoot rtoes
    lowerback upperback
    upperback thorax
    thorax lowerneck lclavicle rclavicle
    lowerneck upperneck
    upperneck head
    lclavicle lhumerus
    lhumerus lradius
    lradius lwrist
    lwrist lhand lthumb
    lhand lfingers
    rclavicle rhumerus
    rhumerus rradius
    rradius rwrist
    rwrist rhand rthumb
    rhand rfingers
  end

#!OML:ASF H:\Pregnant\Project 1\Capture day 1\Session 1\femalepreg.ASF
:FULLY-SPECIFIED
:DEGREES
17
root 7.5541 15.4472 26.8455 -159.867 -3.38652 -174.508
lowerback -12.8274 4.41689 15.3377
upperback -6.03712 2.87274 2.3703
thorax 1.39323 0.715297 -5.64679
lowerneck -1.0584 18.0848 19.6087
upperneck 19.8345 25.3918 -12.382
head 10.6976 12.2385 -4.0906
rclavicle 1.1778e-014 1.08139e-013
rhumerus -44.8154 -3.22813 -74.1389
rradius 23.7263
rwrist -2.46081
rhand -11.791 -19.6859
rfingers 7.12502
rthumb 14.2584 -49.1765
lclavicle 1.1778e-014 1.08139e-013
lhumerus -35.0899 -12.0792 87.6732
lradius 36.0243
lwrist 40.8632
lhand -25.4226 -5.12374
lfingers 7.12502
lthumb 1.10344 24.8531
rfemur -27.1021 9.60348 29.7085
rtibia 27.7596
rfoot -13.1616 -21.8402
rtoes -14.2027
lfemur -44.9626 -4.8583 -11.8726
ltibia 46.2349
lfoot -13.0039 9.3341
ltoes -16.842
18
root 7.55891 15.435 26.8486 -159.895 -3.54711 -174.114
lowerback -12.5765 4.36763 15.7778
upperback -6.08033 2.76287 2.63747
thorax 1.19136 0.623308 -5.62583
lowerneck -1.6423 17.7962 19.1649
upperneck 20.413 24.9132 -12.202
head 10.842 11.95 -4.02571
rclavicle 1.78906e-015 -2.38542e-014
rhumerus -44.483 -2.71599 -74.0356
rradius 23.412
rwrist -2.1419
rhand -11.6149 -19.7494
rfingers 7.12502
rthumb 14.4281 -49.2279
lclavicle 1.78906e-015 -2.38542e-014
lhumerus -35.3222 -11.4435 87.7385
lradius 36.0606
lwrist 40.913
lhand -25.4316 -5.0787
lfingers 7.12502
lthumb 1.09475 24.8982
rfemur -26.9181 9.40522 30.2221
rtibia 27.4478
rfoot -13.1703 -21.6422
rtoes -14.1389
lfemur -45.9922 -4.63258 -11.5229
ltibia 47.811
lfoot -12.731 9.28558
ltoes -16.5932
19
root 7.56294 15.4239 26.8502 -159.926 -3.67592 -173.747
lowerback -12.3416 4.31012 16.1667
upperback -6.10216 2.64768 2.90571
thorax 1.01794 0.532987 -5.57416
lowerneck -2.23891 17.4943 18.7089
upperneck 20.9725 24.4244 -12.0548
head 10.9874 11.6522 -3.97141
rclavicle -1.42131e-014 -6.99722e-014
rhumerus -44.0891 -2.21513 -73.9206
rradius 23.0979
rwrist -1.74843
rhand -11.4899 -19.8005
rfingers 7.12502
rthumb 14.5485 -49.2703
lclavicle -1.42131e-014 -6.99722e-014
lhumerus -35.5524 -10.8319 87.8242
lradius 36.0959
lwrist 40.998
lhand -25.418 -5.02173
lfingers 7.12502
lthumb 1.1079 24.9551
rfemur -26.7276 9.21299 30.6985
rtibia 27.1404
rfoot -13.1739 -21.4324
rtoes -14.108
lfemur -46.9744 -4.42551 -11.204
ltibia 49.32
lfoot -12.4254 9.2558
ltoes -16.3049
20
root 7.56646 15.414 26.85 -159.955 -3.77533 -173.41
lowerback -12.1271 4.2482 16.503
upperback -6.10383 2.5312 3.17037
thorax 0.875395 0.446894 -5.49559
lowerneck -2.86103 17.1821 18.2364
upperneck 21.5247 23.926 -11.921
head 11.1371 11.3457 -3.91939
rclavicle 1.56543e-014 9.54166e-015
rhumerus -43.6406 -1.74241 -73.7903
rradius 22.7896
rwrist -1.29283
rhand -11.427 -19.8518
rfingers 7.12502
rthumb 14.6091 -49.3172
lclavicle 1.56543e-014 9.54166e-015
lhumerus -35.7757 -10.2604 87.9301
lradius 36.1271
lwrist 41.1072
lhand -25.3521 -4.97407
lfingers 7.12502
lthumb 1.17146 25.0025
rfemur -26.539 9.03639 31.1336
rtibia 26.8434
rfoot -13.1611 -21.2229
rtoes -14.1289
lfemur -47.9084 -4.23744 -10.9136
ltibia 50.7386
lfoot -12.0703 9.21224
ltoes -16.0827
21
root 7.56948 15.4058 26.8478 -159.976 -3.8446 -173.115
lowerback -11.9442 4.18111 16.7761
upperback -6.08413 2.4113 3.42629
thorax 0.771058 0.365437 -5.3904
lowerneck -3.49607 16.8552 17.741
upperneck 22.0523 23.4134 -11.801
head 11.2809 11.0292 -3.8714
rclavicle 2.45499e-014 5.56597e-014
rhumerus -43.1359 -1.31333 -73.6433
rradius 22.4901
rwrist -0.786056
rhand -11.4334 -19.9099
rfingers 7.12502
rthumb 14.603 -49.3758
lclavicle 2.45499e-014 5.56597e-014
lhumerus -35.9848 -9.7313 88.0503
lradius 36.1514
lwrist 41.2233
lhand -25.2516 -4.89882
lfingers 7.12502
lthumb 1.26855 25.0772
rfemur -26.3599 8.87 31.5156
rtibia 26.5611
rfoot -13.1603 -21.0096
rtoes -14.134
lfemur -48.7911 -4.06664 -10.6635
ltibia 52.0425
lfoot -11.7169 9.09249
ltoes -15.9355
22
root 7.57211 15.3992 26.8435 -159.984 -3.88876 -172.861
lowerback -11.797 4.11053 16.9877
upperback -6.04853 2.28855 3.67035
thorax 0.701875 0.288372 -5.26316
lowerneck -4.1228 16.5237 17.2411
upperneck 22.5461 22.9024 -11.6942
head 11.4164 10.7128 -3.82781
rclavicle -7.25564e-015 -1.11319e-013
rhumerus -42.583 -0.936846 -73.4801
rradius 22.1983
rwrist -0.248994
rhand -11.5165 -19.9873
rfingers 7.12502
rthumb 14.5228 -49.459
lclavicle -7.25564e-015 -1.11319e-013
lhumerus -36.1792 -9.25177 88.1843
lradius 36.1578
lwrist 41.3278
lhand -25.1192 -4.81921
lfingers 7.12502
lthumb 1.39641 25.156
rfemur -26.1931 8.70505 31.8455
rtibia 26.2941
rfoot -13.1866 -20.7893
rtoes -14.0825
lfemur -49.6241 -3.90866 -10.4551
ltibia 53.21
lfoot -11.4018 8.8251
ltoes -15.8887
23
root 7.57453 15.3942 26.8368 -159.975 -3.90915 -172.649
lowerback -11.6832 4.03798 17.1404
upperback -6.0009 2.16503 3.89952
thorax 0.663361 0.216246 -5.11883
lowerneck -4.74234 16.1823 16.7241
upperneck 23.0077 22.3831 -11.5868
head 11.5389 10.3923 -3.78408
rclavicle -7.05686e-015 -1.08139e-013
rhumerus -41.9959 -0.618543 -73.3046
rradius 21.9329
rwrist 0.287953
rhand -11.6778 -20.0798
rfingers 7.12502
rthumb 14.3674 -49.5626
lclavicle -7.05686e-015 -1.08139e-013
lhumerus -36.3534 -8.8198 88.328
lradius 36.1359
lwrist 41.3921
lhand -24.9692 -4.7218
lfingers 7.12502
lthumb 1.54131 25.2524
rfemur -26.041 8.5477 32.1241
rtibia 26.0407
rfoot -13.2296 -20.5665
rtoes -13.9964
lfemur -50.408 -3.75199 -10.2925
ltibia 54.2214
lfoot -11.1542 8.3568
ltoes -16.0594
